<?xml version="1.0" standalone="no"?>
<!DOCTYPE svg PUBLIC "-//W3C//DTD SVG 20010904//EN"
 "http://www.w3.org/TR/2001/REC-SVG-20010904/DTD/svg10.dtd">
<svg version="1.0" xmlns="http://www.w3.org/2000/svg"
 width="512.000000pt" height="512.000000pt" viewBox="0 0 512.000000 512.000000"
 preserveAspectRatio="xMidYMid meet">

<g transform="translate(0.000000,512.000000) scale(0.100000,-0.100000)"
fill="#000000" stroke="none">
<path d="M1977 4623 c-14 -14 -6 -32 33 -71 36 -36 40 -45 40 -90 0 -39 -8
-66 -36 -119 -49 -92 -65 -139 -65 -196 -1 -68 40 -126 89 -127 28 0 30 33 4
52 -56 39 -52 99 13 226 51 101 62 150 45 212 -18 67 -97 140 -123 113z"/>
<path d="M2136 4615 c-5 -13 28 -55 44 -55 3 0 13 -13 23 -29 29 -49 21 -96
-34 -213 -39 -83 -51 -119 -52 -160 -1 -63 23 -111 64 -129 52 -21 68 16 22
49 -25 18 -28 27 -27 74 0 42 10 73 47 148 40 81 48 104 48 157 1 72 -24 123
-75 154 -37 23 -52 24 -60 4z"/>
<path d="M2307 4615 c-4 -9 10 -30 36 -54 40 -39 42 -43 42 -98 -1 -48 -7 -70
-38 -125 -49 -87 -72 -175 -58 -224 19 -68 92 -120 108 -78 4 10 -6 26 -27 45
-30 28 -32 34 -28 79 3 30 22 83 48 137 54 110 64 187 31 250 -34 67 -100 106
-114 68z"/>
<path d="M1914 3982 l-622 -2 -6 -223 c-6 -199 -25 -1640 -22 -1643 0 -1 549
-5 1218 -8 l1217 -7 -11 33 c-6 18 -18 38 -26 44 -8 6 -12 16 -9 22 8 12 -54
189 -173 497 -45 116 -93 244 -107 285 -25 74 -147 403 -265 715 -34 88 -67
177 -75 199 -8 21 -20 51 -28 66 l-15 28 -227 -1 c-126 -1 -508 -3 -849 -5z
m1012 -934 l-1 -873 -435 -2 c-239 -2 -449 0 -466 2 -22 4 -33 12 -37 28 -2
12 -32 96 -65 187 -202 552 -324 887 -466 1280 l-84 235 151 5 c84 3 434 6
778 8 l627 3 -2 -873z m95 685 c6 -21 68 -186 136 -368 69 -181 127 -338 130
-347 3 -10 13 -18 22 -18 10 0 12 -3 5 -8 -13 -8 30 -131 283 -809 4 -10 -59
-13 -296 -13 l-301 0 0 258 c0 141 -1 501 -3 800 -1 298 1 542 5 542 3 0 12
-17 19 -37z m-1605 -154 c31 -85 78 -215 104 -289 27 -74 82 -227 124 -340 41
-113 87 -236 101 -275 14 -38 30 -79 35 -90 5 -11 12 -30 15 -43 4 -12 11 -20
16 -17 5 3 6 0 3 -8 -5 -14 20 -92 80 -250 14 -37 26 -73 26 -80 0 -9 -26 -11
-97 -10 -54 1 -186 3 -294 3 l-196 0 4 508 c4 543 13 1055 19 1049 2 -2 29
-73 60 -158z m1944 -653 c0 -3 -4 -8 -10 -11 -5 -3 -10 -1 -10 4 0 6 5 11 10
11 6 0 10 -2 10 -4z m-1550 -336 c0 -5 -2 -10 -4 -10 -3 0 -8 5 -11 10 -3 6
-1 10 4 10 6 0 11 -4 11 -10z m157 -457 c-3 -10 -5 -4 -5 12 0 17 2 24 5 18 2
-7 2 -21 0 -30z m172 3 c-2 -2 -22 -6 -44 -10 -29 -5 -36 -4 -25 3 13 10 79
16 69 7z"/>
<path d="M1670 3857 c-36 -18 -48 -59 -26 -92 10 -15 27 -30 37 -32 22 -6 24
-16 7 -43 -13 -21 -6 -36 12 -25 20 12 70 110 70 138 0 31 -31 67 -57 67 -10
0 -29 -6 -43 -13z m54 -30 c26 -19 18 -61 -12 -65 -44 -7 -67 32 -36 62 19 19
25 20 48 3z"/>
<path d="M1515 3850 c-3 -6 1 -13 9 -16 13 -5 16 -23 16 -90 0 -68 3 -84 15
-84 11 0 15 11 15 39 0 21 3 66 6 100 l7 61 -31 0 c-17 0 -34 -5 -37 -10z"/>
<path d="M2125 3366 c-5 -3 -23 -7 -38 -10 -67 -15 -52 -97 27 -154 l44 -32
28 43 c27 42 82 97 97 97 19 0 4 18 -29 33 -36 17 -110 30 -129 23z m95 -30
c0 -3 -4 -8 -10 -11 -5 -3 -10 -1 -10 4 0 6 5 11 10 11 6 0 10 -2 10 -4z"/>
<path d="M2415 3351 c-103 -26 -194 -106 -247 -218 -48 -101 -54 -176 -18
-205 27 -22 52 -23 88 -4 46 24 78 67 137 181 69 133 113 190 160 205 45 15
44 26 -2 39 -42 12 -74 12 -118 2z"/>
<path d="M2543 3290 c-43 -26 -85 -84 -144 -202 -58 -115 -95 -160 -151 -182
-55 -23 -38 -39 47 -44 178 -12 355 152 355 328 0 55 -3 65 -29 91 -35 34 -37
35 -78 9z"/>
<path d="M1997 3257 c-21 -43 -22 -135 -3 -182 14 -33 91 -125 105 -125 4 0 5
15 3 33 -2 17 5 60 16 94 l19 62 -38 31 c-22 17 -50 52 -62 77 l-24 45 -16
-35z"/>
<path d="M2560 2403 c-15 -19 -19 -35 -15 -53 9 -33 34 -60 57 -60 17 0 18 -2
3 -30 -19 -36 -19 -40 -1 -40 15 0 69 91 80 133 4 17 -1 33 -15 51 -29 36 -80
36 -109 -1z m85 -43 c0 -29 -4 -36 -23 -38 -43 -6 -69 37 -40 66 7 7 24 12 38
10 21 -3 25 -8 25 -38z"/>
<path d="M2737 2423 c-16 -15 -5 -23 33 -23 22 0 40 -2 40 -4 0 -3 -16 -42
-35 -87 -35 -84 -37 -96 -12 -86 13 5 87 170 87 195 0 13 -101 18 -113 5z"/>
<path d="M1036 2032 c-3 -5 -5 -178 -5 -385 l1 -377 58 0 59 0 3 199 c3 197 3
200 28 226 54 58 126 70 186 30 47 -30 54 -68 54 -270 l0 -185 61 0 61 0 -4
213 c-3 198 -5 215 -27 260 -40 82 -120 118 -226 103 -35 -6 -56 -17 -91 -50
l-44 -43 0 144 0 143 -54 0 c-30 0 -57 -4 -60 -8z"/>
<path d="M2858 2005 c-55 -18 -119 -84 -136 -143 -18 -61 -15 -170 7 -217 37
-80 108 -125 196 -125 57 0 128 29 147 59 20 33 28 25 28 -26 0 -71 -18 -123
-55 -160 -29 -29 -40 -33 -85 -33 -44 0 -56 4 -81 29 -16 16 -32 43 -35 60 -6
30 -8 31 -60 31 -61 0 -65 -7 -40 -78 23 -63 55 -100 113 -129 47 -22 63 -25
123 -21 90 7 139 37 176 109 51 101 69 294 40 431 -24 109 -68 176 -136 204
-52 22 -147 26 -202 9z m154 -104 c66 -25 100 -153 58 -219 -49 -78 -177 -83
-227 -9 -32 47 -33 152 -2 191 12 15 31 32 43 36 28 12 99 12 128 1z"/>
<path d="M3463 2010 c-88 -18 -142 -68 -169 -156 -18 -61 -18 -118 1 -182 30
-101 104 -154 212 -154 66 0 91 10 147 61 l29 26 -6 -67 c-6 -81 -38 -153 -78
-173 -68 -35 -147 -6 -170 63 -6 20 -17 40 -23 44 -14 10 -94 10 -99 1 -9 -15
29 -114 57 -149 41 -51 96 -74 181 -74 169 0 239 114 239 390 1 125 -2 140
-28 205 -43 108 -99 151 -221 169 -16 2 -49 0 -72 -4z m144 -126 c81 -52 81
-195 1 -244 -41 -25 -124 -27 -156 -4 -44 31 -69 112 -52 173 10 40 52 86 85
94 30 8 97 -2 122 -19z"/>
<path d="M2390 1943 c0 -54 5 -60 49 -53 7 1 23 -1 35 -4 21 -5 21 -8 21 -313
l0 -308 64 -3 64 -3 -6 137 c-4 75 -7 241 -7 368 l0 232 -110 -1 -110 0 0 -52z"/>
<path d="M3830 1981 c0 -5 22 -9 49 -8 l49 2 -4 -32 c-3 -24 0 -33 13 -36 10
-2 3 -4 -15 -4 -18 0 -35 4 -38 9 -3 4 1 8 9 8 8 0 17 9 20 20 6 22 -8 28 -16
8 -4 -10 -8 -9 -16 2 -9 12 -11 10 -11 -12 0 -16 -4 -28 -10 -28 -5 0 -10 12
-11 28 0 23 -1 24 -8 7 -13 -32 -6 -50 20 -52 13 0 86 -3 162 -4 76 -2 140 -6
142 -10 3 -3 -15 -53 -39 -110 -25 -57 -74 -174 -109 -259 -36 -85 -75 -179
-86 -207 l-21 -53 63 0 62 0 27 68 c15 37 66 166 113 287 47 121 92 235 100
253 8 18 15 55 15 82 l0 50 -230 0 c-136 0 -230 -4 -230 -9z m140 -36 c0 -8
-4 -15 -10 -15 -5 0 -7 7 -4 15 4 8 8 15 10 15 2 0 4 -7 4 -15z"/>
<path d="M710 1910 l0 -70 -37 0 -38 0 1 -47 c1 -47 2 -48 37 -51 l35 -3 4
-182 c3 -162 5 -186 24 -217 26 -46 64 -63 147 -68 l67 -4 0 53 0 54 -47 2
c-78 3 -83 15 -83 204 l0 159 65 0 65 0 0 50 0 49 -62 3 -63 3 0 68 0 67 -57
0 -58 0 0 -70z"/>
<path d="M1790 1831 c-70 -25 -133 -92 -155 -164 -36 -122 -8 -265 67 -337
119 -116 353 -80 419 64 31 69 28 76 -39 76 -57 0 -59 -1 -75 -35 -58 -123
-258 -82 -269 55 l-3 35 202 0 202 0 6 27 c7 32 -11 130 -31 169 -15 31 -72
82 -114 104 -50 26 -146 29 -210 6z m175 -105 c33 -22 55 -57 62 -100 l6 -36
-152 0 c-83 0 -151 3 -151 8 0 55 52 125 106 142 39 12 99 6 129 -14z"/>
<path d="M1243 1145 c-3 -10 -9 -31 -13 -49 -4 -17 -12 -30 -18 -29 -22 5 -54
-57 -59 -116 -7 -69 6 -84 41 -46 23 25 24 25 29 4 3 -12 12 -19 19 -17 9 3
13 32 15 103 1 55 4 112 7 127 6 30 -10 49 -21 23z m-37 -193 c-7 -10 -11 -10
-17 -1 -4 7 -6 17 -4 23 2 6 7 25 11 41 l8 30 6 -40 c3 -22 2 -46 -4 -53z"/>
<path d="M1739 1105 c-7 -26 -17 -45 -25 -45 -30 0 -70 -110 -57 -158 7 -29
17 -28 48 5 23 26 25 26 25 7 0 -27 10 -36 26 -23 9 8 12 29 8 72 -3 34 -1 90
4 125 7 49 6 62 -5 62 -7 0 -18 -20 -24 -45z m-19 -114 c0 -36 -14 -61 -26
-48 -8 7 8 87 17 87 5 0 9 -18 9 -39z"/>
<path d="M1547 1113 c-6 -33 2 -51 14 -32 11 18 11 59 0 59 -5 0 -11 -12 -14
-27z"/>
<path d="M2573 1107 c-28 -61 -52 -280 -33 -292 18 -11 30 14 30 63 0 29 4 42
14 42 21 0 30 33 12 46 -18 12 -23 90 -6 79 6 -3 10 0 10 8 0 8 3 29 6 46 8
38 -17 44 -33 8z"/>
<path d="M2726 1083 c-25 -71 -43 -250 -27 -266 17 -17 31 8 31 55 0 20 6 41
13 45 22 13 29 43 12 49 -10 4 -15 20 -15 46 0 21 4 37 9 34 9 -6 23 62 15 76
-11 18 -23 6 -38 -39z"/>
<path d="M787 1050 c-34 -39 -44 -103 -23 -135 31 -48 77 -25 97 47 7 29 8 48
0 65 -21 45 -47 22 -33 -30 5 -18 5 -42 0 -56 -7 -20 -10 -21 -24 -10 -23 19
-13 97 15 120 24 20 27 29 7 29 -8 0 -25 -13 -39 -30z"/>
<path d="M621 1033 c-13 -46 -14 -143 -2 -143 13 0 21 26 22 78 1 26 3 39 6
30 9 -34 23 -17 23 27 0 38 -3 45 -20 45 -14 0 -22 -11 -29 -37z"/>
<path d="M992 1048 c-40 -44 -57 -133 -28 -157 11 -9 18 -6 35 16 22 26 22 27
28 5 6 -23 32 -31 34 -9 0 6 0 41 -1 77 -2 90 -25 113 -68 68z m27 -40 c-2
-45 -9 -68 -20 -68 -12 0 -12 42 1 74 13 35 21 33 19 -6z"/>
<path d="M1386 1048 c-14 -13 -29 -37 -32 -54 -5 -26 -1 -36 21 -57 18 -16 26
-31 21 -42 -3 -9 -10 -14 -15 -10 -6 3 -7 13 -4 22 4 11 2 14 -8 11 -20 -7
-18 -62 3 -66 20 -4 57 34 65 67 5 19 0 29 -20 46 -27 21 -36 58 -17 70 6 4
10 -7 10 -24 0 -33 14 -41 24 -15 10 26 7 51 -8 63 -11 9 -20 7 -40 -11z"/>
<path d="M2372 1048 c-43 -47 -54 -111 -24 -148 22 -27 60 -22 79 9 21 34 26
94 9 116 -22 29 -38 9 -26 -34 6 -20 5 -42 -1 -58 -8 -22 -12 -23 -25 -12 -23
19 -13 97 15 120 24 20 27 29 8 29 -8 0 -23 -10 -35 -22z"/>
<path d="M1531 1000 c-12 -60 -7 -120 9 -120 9 0 33 131 28 156 -7 40 -26 22
-37 -36z"/>
<path d="M1892 1035 c-11 -14 -23 -43 -27 -65 -13 -75 17 -107 60 -64 30 29
34 55 5 29 -25 -23 -25 -15 1 29 39 66 5 128 -39 71z m19 -78 c-13 -13 -15 15
-3 53 7 24 7 23 10 -9 2 -18 -1 -38 -7 -44z"/>
<path d="M2198 1033 c-21 -36 -32 -96 -24 -129 10 -38 46 -29 64 16 10 27 11
32 1 23 -26 -26 -40 -15 -33 25 3 20 11 42 16 47 7 7 8 2 4 -15 -7 -24 -7 -24
9 -5 19 24 16 59 -5 63 -9 1 -23 -10 -32 -25z"/>
<path d="M2897 1048 c-20 -16 -47 -79 -47 -112 0 -60 30 -74 70 -31 25 27 21
46 -6 25 -11 -10 -9 -3 6 23 22 37 25 97 5 104 -6 2 -18 -2 -28 -9z m4 -95
c-10 -17 -10 -17 -11 2 0 11 4 31 8 45 l7 25 3 -27 c2 -15 -1 -35 -7 -45z"/>
<path d="M3063 1038 c-12 -13 -26 -43 -33 -67 -21 -80 10 -122 56 -76 29 29
33 56 4 30 -11 -10 -20 -13 -20 -7 0 6 5 14 11 18 22 13 39 72 29 99 -12 31
-21 31 -47 3z m20 -50 c-3 -18 -10 -37 -16 -43 -6 -7 -8 -2 -3 15 3 14 6 33 6
43 0 9 4 17 10 17 5 0 7 -14 3 -32z"/>
<path d="M3360 1018 c-50 -83 -19 -201 34 -126 20 28 22 58 4 40 -7 -7 -16
-12 -20 -12 -11 0 -10 62 2 80 8 13 10 12 10 -3 0 -10 5 -15 10 -12 6 3 10 19
10 36 0 39 -25 38 -50 -3z"/>
<path d="M3536 1025 c-13 -14 -28 -44 -34 -66 -18 -73 16 -117 51 -66 l16 22
7 -22 c3 -13 13 -23 20 -23 11 0 14 18 14 74 0 41 -3 81 -6 90 -9 24 -42 19
-68 -9z m24 -91 c-19 -22 -29 -7 -20 30 12 56 25 66 28 23 2 -21 -2 -45 -8
-53z"/>
<path d="M3732 1037 c-25 -29 -42 -167 -22 -167 6 0 19 15 30 33 l20 32 0 -32
c0 -20 5 -33 13 -33 7 0 22 15 32 33 l20 32 3 -40 c4 -40 18 -69 32 -60 12 7
10 174 -2 181 -7 4 -13 3 -15 -3 -2 -6 -11 -19 -19 -29 -14 -18 -15 -18 -9 4
8 28 -3 64 -17 56 -5 -3 -19 -20 -30 -38 l-19 -31 6 32 c7 34 -6 51 -23 30z"/>
<path d="M4026 1028 c-14 -19 -16 -20 -16 -4 0 33 -25 10 -37 -35 -14 -52 -17
-189 -4 -189 5 0 12 16 15 36 6 28 11 34 25 29 41 -13 81 94 59 157 -12 34
-22 35 -42 6z m5 -101 c-6 -15 -15 -27 -21 -27 -14 0 -13 15 7 58 14 30 17 33
20 16 2 -11 -1 -32 -6 -47z"/>
<path d="M4207 1038 c-36 -28 -63 -147 -36 -163 26 -17 95 34 73 53 -4 4 -9 1
-11 -5 -3 -7 -9 -13 -14 -13 -5 0 0 15 11 33 20 33 25 63 14 91 -7 19 -15 20
-37 4z m9 -74 c-4 -20 -10 -34 -13 -30 -3 3 -2 21 1 42 4 20 10 34 13 30 3 -3
2 -21 -1 -42z"/>
<path d="M4341 990 c-12 -57 -14 -113 -4 -123 15 -16 33 19 34 67 1 37 3 44 8
26 6 -22 8 -23 14 -7 4 10 7 34 7 53 0 29 -3 34 -24 34 -21 0 -26 -7 -35 -50z"/>
</g>
</svg>
